#!OML:ASF F:\VICON\USERDATA\INSTALL\rory3\rory3.ASF
:FULLY-SPECIFIED
:DEGREES
4787
root 15.1513 17.7834 -6.59755 -1258.58 173.799 -897.804
lowerback 9.40178 2.38776 0.456016
upperback 0.26958 3.23416 0.154213
thorax -4.97221 1.58757 -0.53245
lowerneck -15.6416 -5.86818 -11.3111
upperneck 31.829 -7.89442 8.27298
head 14.3555 -3.6661 3.98316
rclavicle 6.62947e-014 1.59028e-015
rhumerus -30.8304 -3.74145 -86.4731
rradius 33.5491
rwrist 3.84991
rhand -17.8668 9.1124
rfingers 7.12502
rthumb 8.39893 -20.7006
lclavicle 6.62947e-014 1.59028e-015
lhumerus -35.1917 1.21793 81.9481
lradius 32.4442
lwrist -6.89431
lhand -15.9813 24.5509
lfingers 7.12502
lthumb 10.2182 54.2828
rfemur 6.59919 2.45929 28.7941
rtibia 18.6698
rfoot -13.7195 16.3611
rtoes 26.1347
lfemur -22.4377 -4.72638 -18.4225
ltibia 15.7886
lfoot -4.64325 -13.2191
ltoes -15.0956
4788
root 15.1783 17.7776 -6.49323 -1258.79 174.547 -898.065
lowerback 9.44211 2.40942 0.603074
upperback 0.306437 3.28574 0.292328
thorax -4.95578 1.61125 -0.479058
lowerneck -15.6539 -5.85081 -11.3389
upperneck 31.8008 -7.86126 8.26753
head 14.3423 -3.65759 3.99002
rclavicle 2.32081e-014 1.03368e-014
rhumerus -31.1685 -3.97814 -86.1219
rradius 33.3774
rwrist 3.89092
rhand -17.6608 9.13985
rfingers 7.12502
rthumb 8.59771 -20.6651
lclavicle 2.32081e-014 1.03368e-014
lhumerus -35.0612 1.43244 81.8499
lradius 32.3505
lwrist -6.82572
lhand -16.3787 23.7708
lfingers 7.12502
lthumb 9.83483 53.5212
rfemur 7.13473 2.76407 28.909
rtibia 18.6665
rfoot -13.0307 17.0018
rtoes 26.7227
lfemur -22.2009 -5.25229 -18.1275
ltibia 16.1607
lfoot -4.57079 -14.017
ltoes -16.3945
4789
root 15.2023 17.7726 -6.38976 -1259.02 175.309 -898.383
lowerback 9.47868 2.46517 0.802489
upperback 0.405178 3.38756 0.430791
thorax -4.86905 1.6593 -0.459315
lowerneck -15.7292 -5.89304 -11.3101
upperneck 31.7585 -7.92047 8.24487
head 14.3453 -3.6823 3.96145
rclavicle -3.32467e-014 3.18055e-015
rhumerus -31.2965 -4.23721 -85.7747
rradius 32.9489
rwrist 3.87956
rhand -18.0957 9.27702
rfingers 7.12502
rthumb 8.17799 -20.5447
lclavicle -3.32467e-014 3.18055e-015
lhumerus -34.857 1.4224 81.8321
lradius 32.3483
lwrist -6.71523
lhand -16.7317 23.7363
lfingers 7.12502
lthumb 9.49423 53.5025
rfemur 7.6562 3.32717 29.1261
rtibia 18.697
rfoot -11.8398 17.5268
rtoes 29.6622
lfemur -21.9293 -5.81698 -17.7545
ltibia 16.6162
lfoot -4.71368 -14.8056
ltoes -18.0734
4790
root 15.2296 17.7659 -6.28285 -1259.3 176.094 -898.586
lowerback 9.48797 2.52527 0.960873
upperback 0.521926 3.48696 0.5114
thorax -4.74686 1.70708 -0.474368
lowerneck -15.7598 -5.96111 -11.2804
upperneck 31.7858 -8.02847 8.22202
head 14.3762 -3.72933 3.92686
rclavicle -2.98674e-014 -3.97569e-015
rhumerus -31.3778 -4.51759 -85.4531
rradius 32.4268
rwrist 3.70427
rhand -18.5961 9.42971
rfingers 7.12502
rthumb 7.69497 -20.4103
lclavicle -2.98674e-014 -3.97569e-015
lhumerus -34.8406 1.29685 81.7974
lradius 32.5667
lwrist -6.52145
lhand -16.3391 24.4475
lfingers 7.12502
lthumb 9.87298 54.196
rfemur 8.20429 3.52918 29.1523
rtibia 18.9405
rfoot -11.4201 18.0515
rtoes 30.1945
lfemur -21.4999 -6.40431 -17.5305
ltibia 16.9849
lfoot -4.65822 -15.7382
ltoes -18.912
4791
root 15.2565 17.7621 -6.1662 -1259.58 176.966 -898.683
lowerback 9.45443 2.59433 0.97379
upperback 0.586655 3.58123 0.563555
thorax -4.66199 1.75485 -0.436321
lowerneck -15.6245 -5.98053 -11.2511
upperneck 31.8594 -8.09435 8.22254
head 14.386 -3.75981 3.91424
rclavicle -3.0265e-014 -4.77083e-015
rhumerus -31.6254 -4.72388 -85.1733
rradius 31.8841
rwrist 3.49622
rhand -18.0398 9.31983
rfingers 7.12502
rthumb 8.23195 -20.4998
lclavicle -3.0265e-014 -4.77083e-015
lhumerus -34.9953 1.20156 81.7209
lradius 32.7492
lwrist -6.12061
lhand -16.3649 25.339
lfingers 7.12502
lthumb 9.84816 55.0887
rfemur 8.72304 3.48076 29.0397
rtibia 19.3921
rfoot -11.6229 18.4697
rtoes 28.6242
lfemur -20.904 -7.02262 -17.3943
ltibia 17.2926
lfoot -3.86733 -16.8443
ltoes -16.6666
4792
root 15.2721 17.7619 -6.06411 -1259.67 177.603 -898.826
lowerback 9.43828 2.59057 0.95888
upperback 0.561644 3.57776 0.62566
thorax -4.68409 1.75376 -0.363159
lowerneck -15.5048 -5.97041 -11.213
upperneck 31.8342 -8.13678 8.29922
head 14.3548 -3.76863 3.93271
rclavicle -2.98177e-016 -1.19271e-015
rhumerus -31.8667 -4.95192 -84.9538
rradius 31.4037
rwrist 3.3496
rhand -17.4315 8.96371
rfingers 7.12502
rthumb 8.81896 -20.832
lclavicle -2.98177e-016 -1.19271e-015
lhumerus -35.0559 1.27916 81.5599
lradius 32.7466
lwrist -6.04127
lhand -16.9429 25.4978
lfingers 7.12502
lthumb 9.2904 55.2731
rfemur 8.89813 3.37621 29.0853
rtibia 19.8466
rfoot -11.6724 18.5548
rtoes 26.5095
lfemur -20.6855 -7.47728 -17.181
ltibia 17.7263
lfoot -2.02117 -18.3224
ltoes -11.5886
